<svg width="873" height="207" viewBox="0 0 873 207" fill="none" xmlns="http://www.w3.org/2000/svg">
<path d="M766.647 166.223H755.115L769.139 100.247H734.928L737.265 89.2515H817.219L814.882 100.247H780.671L766.647 166.223Z" fill="#E7EFF2"/>
<path d="M632.294 166.223H620.762L637.123 89.2515H642.889C648.501 89.2515 654.356 90.2778 660.455 92.3303C666.63 94.3829 672.627 97.2785 678.444 101.017C684.261 104.756 689.538 109.227 694.274 114.432C699.103 119.564 702.962 125.282 705.851 131.586L714.849 89.2515H726.381L710.02 166.223H698.488C699.922 159.479 699.832 153.028 698.22 146.87C696.699 140.639 694.109 134.921 690.449 129.717C686.804 124.439 682.489 119.784 677.503 115.752C672.609 111.647 667.437 108.311 661.986 105.745C656.55 103.106 651.296 101.42 646.224 100.687L632.294 166.223Z" fill="#E7EFF2"/>
<path d="M601.404 166.223H589.872L594.547 144.231H530.082L532.419 133.235H596.884L603.896 100.247H562.495C557.267 100.247 552.197 101.494 547.285 103.986C542.389 106.405 538.19 109.704 534.688 113.882C531.262 118.061 529.012 122.679 527.937 127.737L519.757 166.223H508.225L516.405 127.737C517.527 122.459 519.617 117.511 522.674 112.893C525.747 108.201 529.503 104.096 533.941 100.577C538.395 96.9853 543.254 94.1997 548.518 92.2204C553.859 90.2411 559.297 89.2515 564.833 89.2515H617.765L601.404 166.223Z" fill="#E7EFF2"/>
<path d="M462.659 166.223H451.127L465.151 100.247H424.327L426.664 89.2515H519.844L517.506 100.247H476.683L462.659 166.223Z" fill="#E7EFF2"/>
<path d="M410.06 144.231C409.203 148.263 407.378 151.965 404.585 155.337C401.808 158.636 398.48 161.275 394.599 163.254C390.719 165.234 386.626 166.223 382.321 166.223H312.206L314.543 155.227H384.658C387.887 155.227 390.842 154.164 393.524 152.038C396.221 149.839 397.889 147.237 398.528 144.231C399.166 141.226 398.597 138.66 396.819 136.534C395.057 134.335 392.562 133.235 389.333 133.235H342.282C338.053 133.235 334.381 132.246 331.265 130.266C328.226 128.287 326.02 125.648 324.645 122.349C323.286 118.977 323.035 115.275 323.892 111.243C324.749 107.212 326.566 103.546 329.343 100.247C332.135 96.8753 335.472 94.1997 339.352 92.2204C343.309 90.2411 347.402 89.2515 351.631 89.2515H415.98L413.643 100.247H349.293C346.141 100.247 343.178 101.347 340.404 103.546C337.723 105.672 336.063 108.238 335.424 111.243C334.785 114.249 335.347 116.851 337.109 119.051C338.963 121.176 341.467 122.239 344.619 122.239H391.67C395.975 122.239 399.647 123.229 402.686 125.208C405.725 127.188 407.924 129.863 409.283 133.235C410.658 136.534 410.917 140.199 410.06 144.231Z" fill="#E7EFF2"/>
<path d="M219.097 166.223H207.565L223.926 89.2515H229.692C235.304 89.2515 241.16 90.2778 247.258 92.3303C253.434 94.3829 259.43 97.2785 265.247 101.017C271.064 104.756 276.341 109.227 281.078 114.432C285.907 119.564 289.765 125.282 292.654 131.586L301.652 89.2515H313.184L296.824 166.223H285.291C286.725 159.479 286.635 153.028 285.023 146.87C283.503 140.639 280.912 134.921 277.252 129.717C273.607 124.439 269.292 119.784 264.306 115.752C259.413 111.647 254.24 108.311 248.789 105.745C243.353 103.106 238.099 101.42 233.027 100.687L219.097 166.223Z" fill="#E7EFF2"/>
<path d="M188.24 166.223H176.707L193.068 89.2515H204.6L188.24 166.223Z" fill="#E7EFF2"/>
<path d="M462.072 69.8015H171.761C388.456 30.4988 413.814 -10.8325 556.362 2.58062C602.814 6.95162 628.809 50.6239 658.724 54.284C738.376 64.0293 781.004 50.1416 825.029 60.7946C862.251 69.8015 854.393 109.307 832.231 151.35C872.823 38.1565 807.314 74.1673 655.814 63.6673C612.94 60.6959 601.425 13.4342 536.814 12.1673C460.314 10.6673 378.814 25.6673 361.581 47.8588C354.814 59.6673 416.432 69.8015 462.072 69.8015Z" fill="#B88F14"/>
<path d="M765.247 198.903C764.942 200.337 764.302 201.655 763.327 202.854C762.357 204.028 761.198 204.967 759.848 205.671C758.498 206.376 757.077 206.728 755.583 206.728H731.263L732.095 202.815H756.415C757.535 202.815 758.562 202.437 759.496 201.681C760.436 200.898 761.019 199.972 761.247 198.903C761.474 197.833 761.281 196.92 760.669 196.164C760.062 195.381 759.198 194.99 758.078 194.99H741.758C740.292 194.99 739.02 194.638 737.943 193.934C736.893 193.229 736.132 192.29 735.662 191.117C735.197 189.917 735.117 188.6 735.422 187.165C735.727 185.73 736.364 184.426 737.333 183.252C738.308 182.052 739.471 181.1 740.82 180.396C742.197 179.692 743.618 179.34 745.085 179.34H767.405L766.573 183.252H744.253C743.16 183.252 742.13 183.644 741.164 184.426C740.23 185.183 739.649 186.095 739.422 187.165C739.194 188.234 739.384 189.16 739.991 189.943C740.63 190.699 741.497 191.077 742.59 191.077H758.91C760.403 191.077 761.675 191.43 762.725 192.134C763.776 192.838 764.533 193.79 764.998 194.99C765.469 196.164 765.552 197.468 765.247 198.903Z" fill="#E7EFF2"/>
<path d="M714.738 206.728H710.738L715.728 183.252H701.568L702.4 179.34H734.72L733.888 183.252H719.728L714.738 206.728Z" fill="#E7EFF2"/>
<path d="M694.749 206.728H689.349L682.612 198.903H670.332L671.156 195.029H687.236C688.356 195.029 689.424 194.768 690.442 194.247C691.465 193.699 692.337 192.982 693.059 192.095C693.787 191.182 694.264 190.191 694.491 189.121C694.724 188.026 694.668 187.034 694.323 186.148C693.979 185.261 693.408 184.557 692.613 184.035C691.817 183.513 690.859 183.252 689.739 183.252H671.419L666.429 206.728H662.429L668.25 179.34H690.57C692.41 179.34 693.996 179.783 695.328 180.67C696.665 181.531 697.615 182.705 698.179 184.191C698.77 185.678 698.874 187.321 698.491 189.121C698.148 190.738 697.455 192.238 696.415 193.621C695.401 195.003 694.157 196.151 692.683 197.064C691.241 197.951 689.693 198.524 688.037 198.785L694.749 206.728Z" fill="#E7EFF2"/>
<path d="M655.714 206.728H651.714L653.378 198.903H631.018L631.849 194.99H654.209L656.704 183.252H642.344C640.531 183.252 638.77 183.696 637.061 184.583C635.358 185.443 633.896 186.617 632.673 188.104C631.477 189.591 630.688 191.234 630.305 193.034L627.394 206.728H623.394L626.305 193.034C626.704 191.156 627.438 189.395 628.508 187.752C629.583 186.082 630.893 184.622 632.439 183.37C633.991 182.092 635.682 181.1 637.511 180.396C639.368 179.692 641.256 179.34 643.176 179.34H661.536L655.714 206.728Z" fill="#E7EFF2"/>
<path d="M623.413 189.121C623.031 190.921 622.228 192.564 621.005 194.051C619.815 195.512 618.365 196.686 616.657 197.572C614.948 198.459 613.174 198.903 611.334 198.903H595.254L596.077 195.029H612.157C613.277 195.029 614.346 194.768 615.364 194.247C616.387 193.699 617.259 192.982 617.981 192.095C618.709 191.182 619.186 190.191 619.413 189.121C619.646 188.026 619.59 187.034 619.245 186.148C618.9 185.261 618.33 184.557 617.534 184.035C616.739 183.513 615.781 183.252 614.661 183.252H596.341L591.351 206.728H587.351L593.172 179.34H615.492C617.332 179.34 618.918 179.783 620.25 180.67C621.587 181.531 622.537 182.705 623.101 184.191C623.692 185.678 623.796 187.321 623.413 189.121Z" fill="#E7EFF2"/>
<path d="M567.249 206.728H561.849L555.112 198.903H542.832L543.656 195.029H559.736C560.856 195.029 561.924 194.768 562.942 194.247C563.965 193.699 564.837 192.982 565.559 192.095C566.287 191.182 566.764 190.191 566.991 189.121C567.224 188.026 567.168 187.034 566.823 186.148C566.479 185.261 565.908 184.557 565.113 184.035C564.317 183.513 563.359 183.252 562.239 183.252H543.919L538.929 206.728H534.929L540.75 179.34H563.07C564.91 179.34 566.496 179.783 567.828 180.67C569.165 181.531 570.115 182.705 570.679 184.191C571.27 185.678 571.374 187.321 570.991 189.121C570.648 190.738 569.955 192.238 568.915 193.621C567.901 195.003 566.657 196.151 565.183 197.064C563.741 197.951 562.193 198.524 560.537 198.785L567.249 206.728Z" fill="#E7EFF2"/>
<path d="M528.214 206.728H524.214L525.878 198.903H503.518L504.349 194.99H526.709L529.204 183.252H514.844C513.031 183.252 511.27 183.696 509.561 184.583C507.858 185.443 506.396 186.617 505.173 188.104C503.977 189.591 503.188 191.234 502.805 193.034L499.894 206.728H495.894L498.805 193.034C499.204 191.156 499.938 189.395 501.008 187.752C502.083 186.082 503.393 184.622 504.939 183.37C506.491 182.092 508.182 181.1 510.011 180.396C511.868 179.692 513.756 179.34 515.676 179.34H534.036L528.214 206.728Z" fill="#E7EFF2"/>
<path d="M491.554 206.728H473.514C471.567 206.728 469.882 206.376 468.458 205.671C467.034 204.967 465.882 203.989 465.002 202.737C464.148 201.485 463.589 200.037 463.325 198.394C463.066 196.725 463.14 194.938 463.544 193.034C463.944 191.156 464.624 189.395 465.587 187.752C466.555 186.082 467.732 184.622 469.118 183.37C470.537 182.092 472.108 181.1 473.831 180.396C475.554 179.692 477.388 179.34 479.335 179.34H497.375L496.543 183.252H478.503C476.663 183.252 474.983 183.696 473.461 184.583C471.971 185.443 470.708 186.617 469.672 188.104C468.636 189.591 467.927 191.234 467.544 193.034C467.162 194.834 467.172 196.477 467.576 197.964C467.986 199.424 468.75 200.598 469.868 201.485C471.013 202.372 472.505 202.815 474.345 202.815H492.385L491.554 206.728Z" fill="#E7EFF2"/>
<path d="M104.794 91.3536C82.9668 91.9721 66.1605 92.4875 67.5166 92.6937C68.8945 92.7968 90.9594 93.4153 116.724 94.0338C142.51 94.5492 167.574 95.1677 172.452 95.2708L181.406 95.4769L182.296 92.6937L183.186 89.9105L163.846 90.1166C153.226 90.2197 126.621 90.7351 104.794 91.3536Z" fill="#E7EFF2"/>
<path d="M105.869 100.791C85.4411 101.409 73.0904 102.131 78.5675 102.234C84.0447 102.337 108.687 103.058 133.23 103.78C157.873 104.502 178.282 104.914 178.825 104.708C179.269 104.502 179.853 103.162 180.159 101.718L180.683 99.2444L161.943 99.4506C151.523 99.5537 126.396 100.172 105.869 100.791Z" fill="#E7EFF2"/>
<path d="M138.224 109.524C121.139 109.937 90.7916 110.658 70.8859 111.174L34.6957 112.101L62.0597 112.72C77.0915 113.029 109.233 113.751 133.541 114.163L177.758 114.988L177.992 111.998C178.357 108.39 180.934 108.493 138.224 109.524Z" fill="#E7EFF2"/>
<path d="M98.8732 119.289C74.2464 119.908 56.4185 120.526 59.0962 120.629C63.0518 120.835 170.099 123.825 174.676 123.928C175.376 123.928 176.16 122.588 176.532 120.835L177.187 117.743L160.446 117.949C151.126 118.052 123.5 118.671 98.8732 119.289Z" fill="#E7EFF2"/>
<path d="M79.1292 128.539C47.9037 129.157 24.0768 129.776 26.0546 129.879C28.0324 129.982 52.2188 130.497 79.7828 131.116C107.369 131.631 139.81 132.353 152.042 132.662L174.107 133.28L174.784 130.085L175.44 126.992L155.7 127.198C144.78 127.302 110.355 127.92 79.1292 128.539Z" fill="#E7EFF2"/>
<path d="M80.4394 136.916C40.4936 137.638 7.04659 138.359 6.10305 138.565C5.05954 138.771 27.3463 139.287 55.5539 139.699C83.7614 140.112 121.524 140.73 139.533 141.142L172.096 141.761L172.773 138.565L173.472 135.267L163.252 135.37C157.532 135.473 120.285 136.194 80.4394 136.916Z" fill="#E7EFF2"/>
<path d="M136.21 144.619C117.448 144.928 84.5006 145.65 62.8952 146.165L23.7055 147.093L53.5691 147.712C70.0006 148.021 103.042 148.742 127.05 149.155L170.567 149.979L171.136 147.299C171.441 145.856 171.425 144.516 171.069 144.31C170.613 144.104 154.972 144.31 136.21 144.619Z" fill="#E7EFF2"/>
<path d="M95.4849 154.206C68.0587 154.824 45.2879 155.649 44.9224 155.958C44.457 156.267 62.4226 156.886 84.7531 157.195C107.162 157.607 135.126 158.226 147.036 158.638L168.601 159.257L169.278 156.061L169.978 152.763L157.736 152.969C150.915 153.072 122.911 153.587 95.4849 154.206Z" fill="#E7EFF2"/>
<path d="M94.196 162.584C72.0689 163.202 56.8405 163.821 60.418 163.924C63.9955 164.027 84.0826 164.542 105.148 165.161C126.235 165.676 148.678 166.398 155.133 166.604L166.722 167.119L167.355 164.13L168.011 161.037L151.27 161.244C141.95 161.347 116.323 161.965 94.196 162.584Z" fill="#E7EFF2"/>
</svg>
