<svg width="476" height="113" viewBox="0 0 476 113" fill="none" xmlns="http://www.w3.org/2000/svg">
<path d="M418.407 90.8599H412.113L419.767 54.7967H401.096L402.371 48.7861H446.007L444.732 54.7967H426.061L418.407 90.8599Z" fill="#261E1E"/>
<path d="M345.082 90.8599H338.788L347.717 48.7861H350.864C353.927 48.7861 357.123 49.3471 360.451 50.4691C363.822 51.591 367.094 53.1738 370.269 55.2174C373.444 57.261 376.323 59.7053 378.909 62.5503C381.544 65.3552 383.65 68.4807 385.226 71.9267L390.137 48.7861H396.431L387.502 90.8599H381.208C381.991 87.1734 381.942 83.6472 381.062 80.2813C380.232 76.8754 378.818 73.7499 376.821 70.9049C374.832 68.0198 372.476 65.4754 369.755 63.2715C367.085 61.0276 364.262 59.2044 361.287 57.8019C358.32 56.3594 355.453 55.4378 352.684 55.0371L345.082 90.8599Z" fill="#261E1E"/>
<path d="M328.223 90.8599H321.93L324.481 78.8388H289.298L290.574 72.8283H325.756L329.583 54.7967H306.988C304.135 54.7967 301.368 55.4779 298.687 56.8402C296.015 58.1626 293.723 59.9657 291.812 62.2497C289.943 64.5337 288.715 67.0582 288.128 69.823L283.663 90.8599H277.369L281.834 69.823C282.446 66.9379 283.587 64.2332 285.255 61.7088C286.933 59.1443 288.982 56.9004 291.404 54.977C293.835 53.0135 296.487 51.4909 299.36 50.409C302.275 49.3271 305.243 48.7861 308.264 48.7861H337.152L328.223 90.8599Z" fill="#261E1E"/>
<path d="M252.502 90.8599H246.208L253.861 54.7967H231.581L232.857 48.7861H283.711L282.435 54.7967H260.155L252.502 90.8599Z" fill="#261E1E"/>
<path d="M223.795 78.8388C223.327 81.0427 222.331 83.0662 220.807 84.9094C219.292 86.7126 217.475 88.1551 215.357 89.237C213.239 90.3189 211.006 90.8599 208.656 90.8599H170.39L171.665 84.8493H209.932C211.694 84.8493 213.307 84.2683 214.77 83.1063C216.242 81.9042 217.152 80.4817 217.501 78.8388C217.85 77.1959 217.539 75.7935 216.569 74.6314C215.607 73.4293 214.245 72.8283 212.483 72.8283H186.804C184.496 72.8283 182.492 72.2873 180.792 71.2054C179.133 70.1235 177.929 68.681 177.179 66.8778C176.437 65.0346 176.3 63.0111 176.768 60.8072C177.235 58.6033 178.227 56.5998 179.743 54.7967C181.267 52.9534 183.088 51.4909 185.205 50.409C187.365 49.3271 189.599 48.7861 191.906 48.7861H227.026L225.75 54.7967H190.631C188.911 54.7967 187.293 55.3977 185.78 56.5998C184.316 57.7619 183.41 59.1643 183.061 60.8072C182.713 62.4501 183.019 63.8726 183.981 65.0747C184.993 66.2367 186.359 66.8177 188.08 66.8177H213.758C216.108 66.8177 218.112 67.3587 219.771 68.4406C221.429 69.5225 222.629 70.985 223.371 72.8283C224.121 74.6314 224.262 76.6349 223.795 78.8388Z" fill="#261E1E"/>
<path d="M119.575 90.8599H113.281L122.21 48.7861H125.357C128.42 48.7861 131.616 49.3471 134.944 50.4691C138.314 51.591 141.587 53.1738 144.762 55.2174C147.936 57.261 150.816 59.7053 153.401 62.5503C156.037 65.3552 158.143 68.4807 159.719 71.9267L164.63 48.7861H170.924L161.995 90.8599H155.701C156.484 87.1734 156.435 83.6472 155.555 80.2813C154.725 76.8754 153.311 73.7499 151.314 70.9049C149.324 68.0198 146.969 65.4754 144.248 63.2715C141.577 61.0276 138.755 59.2044 135.779 57.8019C132.813 56.3594 129.945 55.4378 127.177 55.0371L119.575 90.8599Z" fill="#261E1E"/>
<path d="M102.734 90.8599H96.4401L105.369 48.7861H111.663L102.734 90.8599Z" fill="#261E1E"/>
<path d="M252.181 38.1544H93.7404C212.004 16.671 225.844 -5.9212 303.641 1.4106C328.993 3.79984 343.18 27.6717 359.506 29.6723C402.977 34.9992 426.242 27.408 450.269 33.2311C470.584 38.1544 466.295 59.7485 454.2 82.7299C476.354 20.8568 440.601 40.5408 357.918 34.8013C334.519 33.1771 328.235 7.3433 292.973 6.65081C251.222 5.83089 206.742 14.0301 197.337 26.1602C193.644 32.6149 227.272 38.1544 252.181 38.1544Z" fill="#D8B446"/>
<path d="M417.643 108.723C417.476 109.507 417.127 110.227 416.595 110.883C416.066 111.524 415.433 112.038 414.696 112.423C413.96 112.808 413.184 113 412.369 113H399.096L399.55 110.861H412.823C413.434 110.861 413.994 110.655 414.504 110.241C415.017 109.813 415.336 109.307 415.46 108.723C415.584 108.138 415.479 107.639 415.144 107.226C414.813 106.798 414.342 106.584 413.73 106.584H404.824C404.023 106.584 403.329 106.391 402.741 106.007C402.168 105.622 401.753 105.108 401.496 104.467C401.242 103.811 401.199 103.091 401.365 102.307C401.532 101.522 401.879 100.81 402.409 100.168C402.941 99.5121 403.575 98.9917 404.312 98.6067C405.063 98.2218 405.839 98.0293 406.639 98.0293H418.821L418.367 100.168H406.185C405.589 100.168 405.026 100.382 404.499 100.81C403.989 101.223 403.672 101.722 403.548 102.307C403.424 102.891 403.528 103.397 403.859 103.825C404.208 104.239 404.681 104.445 405.277 104.445H414.184C414.999 104.445 415.693 104.638 416.267 105.023C416.84 105.408 417.253 105.928 417.507 106.584C417.764 107.226 417.809 107.938 417.643 108.723Z" fill="#261E1E"/>
<path d="M390.077 113H387.894L390.617 100.168H382.889L383.343 98.0293H400.982L400.528 100.168H392.8L390.077 113Z" fill="#261E1E"/>
<path d="M379.168 113H376.221L372.544 108.723H365.842L366.291 106.605H375.067C375.678 106.605 376.262 106.463 376.817 106.178C377.375 105.878 377.852 105.486 378.246 105.001C378.642 104.502 378.903 103.961 379.027 103.376C379.154 102.777 379.124 102.235 378.935 101.751C378.747 101.266 378.436 100.881 378.002 100.596C377.567 100.311 377.045 100.168 376.433 100.168H366.435L363.712 113H361.529L364.706 98.0293H376.887C377.891 98.0293 378.757 98.2717 379.484 98.7564C380.213 99.227 380.732 99.8686 381.04 100.681C381.362 101.494 381.419 102.392 381.21 103.376C381.023 104.26 380.645 105.08 380.077 105.835C379.524 106.591 378.845 107.218 378.04 107.717C377.253 108.202 376.408 108.516 375.505 108.658L379.168 113Z" fill="#261E1E"/>
<path d="M357.864 113H355.681L356.589 108.723H344.385L344.839 106.584H357.043L358.404 100.168H350.567C349.577 100.168 348.616 100.41 347.684 100.895C346.755 101.366 345.956 102.007 345.289 102.82C344.636 103.633 344.205 104.531 343.997 105.515L342.408 113H340.225L341.814 105.515C342.031 104.488 342.432 103.526 343.016 102.627C343.602 101.715 344.318 100.917 345.161 100.232C346.008 99.5335 346.931 98.9917 347.929 98.6067C348.943 98.2218 349.973 98.0293 351.021 98.0293H361.041L357.864 113Z" fill="#261E1E"/>
<path d="M340.235 103.376C340.027 104.36 339.588 105.258 338.921 106.071C338.271 106.869 337.48 107.511 336.548 107.996C335.616 108.48 334.647 108.723 333.643 108.723H324.867L325.316 106.605H334.092C334.704 106.605 335.287 106.463 335.842 106.178C336.401 105.878 336.877 105.486 337.271 105.001C337.668 104.502 337.928 103.961 338.052 103.376C338.179 102.777 338.149 102.235 337.961 101.751C337.772 101.266 337.461 100.881 337.027 100.596C336.593 100.311 336.07 100.168 335.459 100.168H325.46L322.737 113H320.554L323.731 98.0293H335.912C336.917 98.0293 337.782 98.2717 338.509 98.7564C339.238 99.227 339.757 99.8686 340.065 100.681C340.387 101.494 340.444 102.392 340.235 103.376Z" fill="#261E1E"/>
<path d="M309.583 113H306.636L302.959 108.723H296.257L296.707 106.605H305.482C306.094 106.605 306.677 106.463 307.232 106.178C307.791 105.878 308.267 105.486 308.661 105.001C309.058 104.502 309.318 103.961 309.442 103.376C309.569 102.777 309.539 102.235 309.351 101.751C309.163 101.266 308.851 100.881 308.417 100.596C307.983 100.311 307.46 100.168 306.849 100.168H296.85L294.127 113H291.944L295.121 98.0293H307.303C308.307 98.0293 309.172 98.2717 309.899 98.7564C310.629 99.227 311.147 99.8686 311.455 100.681C311.777 101.494 311.834 102.392 311.625 103.376C311.438 104.26 311.06 105.08 310.492 105.835C309.939 106.591 309.26 107.218 308.456 107.717C307.669 108.202 306.823 108.516 305.92 108.658L309.583 113Z" fill="#261E1E"/>
<path d="M288.279 113H286.096L287.004 108.723H274.801L275.255 106.584H287.458L288.82 100.168H280.982C279.993 100.168 279.032 100.41 278.099 100.895C277.17 101.366 276.372 102.007 275.704 102.82C275.051 103.633 274.621 104.531 274.412 105.515L272.823 113H270.64L272.229 105.515C272.447 104.488 272.847 103.526 273.431 102.627C274.018 101.715 274.733 100.917 275.577 100.232C276.424 99.5335 277.346 98.9917 278.345 98.6067C279.358 98.2218 280.388 98.0293 281.436 98.0293H291.456L288.279 113Z" fill="#261E1E"/>
<path d="M268.271 113H258.426C257.363 113 256.444 112.808 255.667 112.423C254.89 112.038 254.261 111.503 253.78 110.819C253.314 110.134 253.009 109.343 252.865 108.445C252.724 107.532 252.764 106.555 252.985 105.515C253.203 104.488 253.574 103.526 254.1 102.627C254.628 101.715 255.271 100.917 256.027 100.232C256.801 99.5335 257.658 98.9917 258.599 98.6067C259.539 98.2218 260.541 98.0293 261.603 98.0293H271.449L270.995 100.168H261.149C260.145 100.168 259.227 100.41 258.397 100.895C257.584 101.366 256.895 102.007 256.329 102.82C255.764 103.633 255.377 104.531 255.168 105.515C254.959 106.498 254.965 107.397 255.186 108.209C255.409 109.008 255.826 109.649 256.436 110.134C257.061 110.619 257.875 110.861 258.88 110.861H268.725L268.271 113Z" fill="#261E1E"/>
<path d="M57.1925 49.9356C45.2801 50.2737 36.1078 50.5554 36.8479 50.6681C37.5999 50.7245 49.6422 51.0625 63.7033 51.4006C77.7764 51.6823 91.4557 52.0204 94.1175 52.0768L99.0046 52.1895L99.4903 50.6681L99.9759 49.1468L89.4207 49.2595C83.6247 49.3158 69.105 49.5975 57.1925 49.9356Z" fill="#261E1E"/>
<path d="M57.7789 55.0935C46.6303 55.4316 39.8898 55.826 42.879 55.8824C45.8682 55.9387 59.3173 56.3331 72.7117 56.7275C86.1607 57.122 97.2992 57.3474 97.5959 57.2347C97.838 57.122 98.1567 56.3895 98.3236 55.6006L98.6098 54.2483L88.382 54.361C82.6952 54.4174 68.982 54.7554 57.7789 55.0935Z" fill="#261E1E"/>
<path d="M75.4372 59.8672C66.1132 60.0926 49.5506 60.487 38.6869 60.7687L18.9356 61.2758L33.8699 61.6139C42.0736 61.7829 59.6151 62.1774 72.8817 62.4027L97.0138 62.8535L97.1413 61.2195C97.3404 59.2474 98.7472 59.3037 75.4372 59.8672Z" fill="#261E1E"/>
<path d="M53.9614 65.2056C40.521 65.5437 30.7912 65.8818 32.2526 65.9381C34.4114 66.0508 92.8338 67.6849 95.3319 67.7412C95.7139 67.7412 96.1417 67.0087 96.3444 66.0508L96.7021 64.3604L87.5657 64.4731C82.479 64.5295 67.4017 64.8676 53.9614 65.2056Z" fill="#261E1E"/>
<path d="M43.1855 70.2606C26.1438 70.5987 13.14 70.9368 14.2194 70.9931C15.2988 71.0495 28.4989 71.3312 43.5422 71.6693C58.5975 71.951 76.3027 72.3454 82.9786 72.5145L95.0209 72.8525L95.3905 71.1058L95.7482 69.4154L84.9748 69.5281C79.0151 69.5845 60.2272 69.9225 43.1855 70.2606Z" fill="#261E1E"/>
<path d="M43.9011 74.84C22.1001 75.2344 3.84604 75.6289 3.3311 75.7416C2.76158 75.8542 14.9249 76.136 30.3195 76.3614C45.7141 76.5867 66.3233 76.9248 76.1521 77.1502L93.9238 77.4883L94.2934 75.7416L94.675 73.9385L89.0973 73.9948C85.9751 74.0512 65.6474 74.4456 43.9011 74.84Z" fill="#261E1E"/>
<path d="M74.3381 79.0505C64.0984 79.2195 46.1171 79.6139 34.3257 79.8957L12.9374 80.4028L29.2358 80.7409C38.2035 80.9099 56.2361 81.3043 69.339 81.5297L93.0891 81.9805L93.3992 80.5155C93.5661 79.7266 93.5574 78.9941 93.363 78.8814C93.114 78.7687 84.5778 78.8814 74.3381 79.0505Z" fill="#261E1E"/>
<path d="M52.112 84.2908C37.1438 84.6289 24.7164 85.0796 24.5169 85.2487C24.2629 85.4177 34.0679 85.7558 46.255 85.9248C58.4847 86.1502 73.7464 86.4883 80.2467 86.7137L92.0161 87.0518L92.3857 85.305L92.7673 83.502L86.0863 83.6146C82.3638 83.671 67.0802 83.9527 52.112 84.2908Z" fill="#261E1E"/>
<path d="M51.4089 88.8704C39.3328 89.2085 31.0217 89.5465 32.9741 89.6029C34.9266 89.6592 45.8894 89.941 57.386 90.279C68.8945 90.5608 81.143 90.9552 84.666 91.0679L90.9907 91.3496L91.3365 89.7156L91.6942 88.0252L82.5577 88.1379C77.4711 88.1942 63.4851 88.5323 51.4089 88.8704Z" fill="#261E1E"/>
</svg>
